# xmcd CD database file
#
# Track frame offsets:
#	150
#	25585
#	51416
#	66652
#	98935
#	129382
#	153733
#	193962
#	218306
#
# Disc length: 3536 seconds
#
# Revision: 0
# Processed by: cddbd v1.5.2PL0 Copyright (c) Steve Scherf et al.
# Submitted via: CDex 1.51
#
DISCID=820dce09
DTITLE=Adam Rogers - Time And The Infinite
DYEAR=2007
DGENRE=Jazz
TTITLE0=Night And Day
TTITLE1=Elegy
TTITLE2=Time And The Infinite
TTITLE3=Young And Foolish
TTITLE4=Cheryl
TTITLE5=Esteban
TTITLE6=Without A Song
TTITLE7=Ides Of March
TTITLE8=I Loves You, Porgy
EXTD=YEAR: 2007
EXTT0=
EXTT1=
EXTT2=
EXTT3=
EXTT4=
EXTT5=
EXTT6=
EXTT7=
EXTT8=
PLAYORDER=
